<svg width="14" height="17" viewBox="0 0 14 17" fill="none" xmlns="http://www.w3.org/2000/svg">
<path fill-rule="evenodd" clip-rule="evenodd" d="M7 8.50757C8.10457 8.50757 9 9.403 9 10.5076C9 11.6121 8.10457 12.5076 7 12.5076C5.89543 12.5076 5 11.6121 5 10.5076C5.00329 9.40437 5.8968 8.51086 7 8.50757ZM7 2.50757C5.8968 2.51086 5.00329 3.40437 5 4.50757H9C8.99671 3.40437 8.1032 2.51086 7 2.50757ZM12 16.5076H2C0.896798 16.5043 0.0032948 15.6108 0 14.5076V6.50757C0.0032948 5.40437 0.896798 4.51086 2 4.50757H3C3 2.29843 4.79086 0.507568 7 0.507568C9.20914 0.507568 11 2.29843 11 4.50757H12C13.1032 4.51086 13.9967 5.40437 14 6.50757V14.5076C13.9967 15.6108 13.1032 16.5043 12 16.5076Z" fill="#8A8DA1"/>
</svg>
